<?xml version="1.0" standalone="no"?>
<!DOCTYPE svg PUBLIC "-//W3C//DTD SVG 20010904//EN"
 "http://www.w3.org/TR/2001/REC-SVG-20010904/DTD/svg10.dtd">
<svg version="1.0" xmlns="http://www.w3.org/2000/svg"
 width="594.000000pt" height="594.000000pt" viewBox="0 0 594.000000 594.000000"
 preserveAspectRatio="xMidYMid meet">
<metadata>
Created by potrace 1.11, written by Peter Selinger 2001-2013
</metadata>
<g transform="translate(0.000000,594.000000) scale(0.100000,-0.100000)"
fill="#000000" stroke="none">
<path d="M5160 5929 c-14 -5 -40 -29 -57 -52 -18 -23 -54 -69 -80 -103 -27
-33 -59 -76 -73 -94 -132 -173 -443 -578 -453 -590 -6 -8 -61 -80 -122 -160
-60 -80 -115 -152 -122 -160 -7 -8 -113 -150 -237 -315 -124 -165 -229 -304
-233 -310 -12 -15 -309 -409 -363 -481 -25 -34 -81 -111 -124 -170 -44 -60
-116 -158 -161 -219 -45 -60 -103 -141 -130 -180 -26 -38 -51 -72 -54 -75 -3
-3 -10 -13 -16 -22 -5 -9 -52 -75 -103 -148 -82 -114 -97 -130 -115 -124 -12
3 -26 7 -32 8 -6 0 -10 -32 -10 -81 l0 -82 -40 -30 c-36 -27 -165 -232 -405
-647 -64 -111 -410 -696 -415 -702 -2 -2 -23 2 -46 9 -77 20 -179 14 -256 -17
-146 -58 -183 -99 -408 -449 -128 -199 -248 -375 -392 -572 -57 -78 -103 -145
-103 -150 0 -9 804 -9 852 0 16 3 47 8 70 12 358 56 550 287 572 689 1 17 -4
65 -11 106 l-13 75 53 54 c57 60 55 57 182 196 50 54 101 110 115 125 26 28
199 216 238 259 13 14 67 73 120 130 53 57 111 120 129 140 18 20 61 67 96
105 47 51 69 83 81 122 l17 54 64 0 64 0 -10 32 c-12 42 -12 41 9 64 18 20
185 240 215 284 9 14 33 48 52 75 40 56 258 384 323 485 47 74 398 655 432
715 13 22 34 60 48 85 14 25 33 59 42 75 74 129 227 399 250 440 92 166 283
518 338 625 36 69 68 130 72 135 4 6 51 96 105 200 54 105 125 242 158 305 54
102 60 122 61 175 1 64 -23 118 -63 143 -29 17 -81 22 -111 11z"/>
</g>
</svg>
